<svg id="iocn" xmlns="http://www.w3.org/2000/svg" viewBox="0 0 72.46 74.62"><defs><style>.cls-1,.cls-2{fill:none;stroke-linecap:round;stroke-linejoin:round;stroke-width:2px;}.cls-1{stroke:#053343;}.cls-2{stroke:#13ceed;}.cls-3{fill:#13ceed;}</style></defs><title>bomb_01</title><g id="_Group_" data-name="&lt;Group&gt;"><g id="_Group_2" data-name="&lt;Group&gt;"><path id="_Path_" data-name="&lt;Path&gt;" class="cls-1" d="M936.75,635.64c-1.21,0-2.41,1.21-2.41,3.62a6,6,0,1,1-12.05-.05,6.86,6.86,0,0,0-7.13-7.18,7,7,0,0,0-7.34,7.18v7.28" transform="translate(-882.73 -631.03)"/><path id="_Path_2" data-name="&lt;Path&gt;" class="cls-1" d="M892.58,682.64a16.87,16.87,0,0,1,8-22.48" transform="translate(-882.73 -631.03)"/><path id="_Path_3" data-name="&lt;Path&gt;" class="cls-1" d="M923.09,656.76a24.06,24.06,0,0,0-8-4.34v-5.93H900.6v5.93a24.11,24.11,0,1,0,19.14,44" transform="translate(-882.73 -631.03)"/></g><g id="_Group_3" data-name="&lt;Group&gt;"><polygon id="_Path_4" data-name="&lt;Path&gt;" class="cls-2" points="61.89 54.8 61.89 29.62 52.86 38.64 43.84 29.62 43.84 55.19 34.27 55.4 52.48 73.62 71.45 54.59 61.89 54.8"/><g id="_Group_4" data-name="&lt;Group&gt;"><path id="_Compound_Path_" data-name="&lt;Compound Path&gt;" class="cls-3" d="M933.76,685a3.86,3.86,0,0,1-.94.11,2.32,2.32,0,0,1-.94-0.2,1.22,1.22,0,0,1-.59-0.5,3.06,3.06,0,0,1-.36-0.71,3.23,3.23,0,0,1-.09-0.92,6.55,6.55,0,0,1,.11-0.9,1.94,1.94,0,0,1,.41-0.78,1.62,1.62,0,0,1,.72-0.52,2.47,2.47,0,0,1,.66-0.13,6,6,0,0,1,.66,0,2.64,2.64,0,0,1,.59.12,1.62,1.62,0,0,1,.52.29,1.39,1.39,0,0,1,.37.48,1.7,1.7,0,0,1,.16.58,5,5,0,0,1,0,1.09,5.2,5.2,0,0,1-.2,1.07,1.38,1.38,0,0,1-.44.6A2.1,2.1,0,0,1,933.76,685Zm-0.52-1.06a0.53,0.53,0,0,0,.19-0.06,0.66,0.66,0,0,0,.15-0.11,0.8,0.8,0,0,0,.23-0.53c0-.21,0-0.41,0-0.59a2.51,2.51,0,0,0-.06-0.5,0.52,0.52,0,0,0-.3-0.39,1.16,1.16,0,0,0-.44-0.13,0.7,0.7,0,0,0-.42.09,0.67,0.67,0,0,0-.31.27,1.41,1.41,0,0,0-.13.37c0,0.1,0,.24,0,0.4a2.81,2.81,0,0,0,0,.49,1.16,1.16,0,0,0,.15.43,0.48,0.48,0,0,0,.35.23l0.26,0A1,1,0,0,0,933.24,683.91Zm5.56-2.64v0a1,1,0,0,1-.11.58,5.48,5.48,0,0,1-.3.52l-0.39.73-0.4.73-1.07,1.91-1.07,1.92-0.44.83q-0.22.42-.46,0.84l-0.28.48a3,3,0,0,1-.34.49,1.45,1.45,0,0,1-.43.35,0.89,0.89,0,0,1-.55.08,0.5,0.5,0,0,1-.32-0.18,0.62,0.62,0,0,1-.14-0.35,1.31,1.31,0,0,1,.16-0.62L933,689q0.2-.38.42-0.75l0.43-.74,1.07-1.93,1.07-1.93c0.13-.26.27-0.53,0.42-0.79l0.44-.78,0.24-.41a3.34,3.34,0,0,1,.28-0.4,2,2,0,0,1,.34-0.33,1,1,0,0,1,.42-0.18,0.56,0.56,0,0,1,.45.08A0.53,0.53,0,0,1,938.8,681.27Zm0.16,9.87a4.45,4.45,0,0,1-.9.13,2,2,0,0,1-.89-0.18,1.53,1.53,0,0,1-.62-0.52,2.47,2.47,0,0,1-.4-0.73,2.68,2.68,0,0,1-.1-0.9,7.77,7.77,0,0,1,.11-0.92,2,2,0,0,1,.4-0.78,1.48,1.48,0,0,1,.71-0.5,2.51,2.51,0,0,1,.66-0.13,3.54,3.54,0,0,1,.66,0,2.27,2.27,0,0,1,.59.11,1.6,1.6,0,0,1,.52.29,1.13,1.13,0,0,1,.21.26,2.36,2.36,0,0,1,.17.34,3.32,3.32,0,0,1,.12.36,2,2,0,0,1,.06.34,4.73,4.73,0,0,1,0,1,3.52,3.52,0,0,1-.22.95,1.09,1.09,0,0,1-.45.6A2.52,2.52,0,0,1,939,691.13Zm-0.54-1.06a0.54,0.54,0,0,0,.35-0.16,0.86,0.86,0,0,0,.26-0.51,2.66,2.66,0,0,0,0-.56,2.16,2.16,0,0,0-.08-0.52,0.64,0.64,0,0,0-.32-0.43,0.92,0.92,0,0,0-.44-0.12,0.9,0.9,0,0,0-.44.09,0.65,0.65,0,0,0-.29.27,0.92,0.92,0,0,0-.11.38,3.75,3.75,0,0,0,0,.41,2.23,2.23,0,0,0,0,.47,1.16,1.16,0,0,0,.15.42,0.49,0.49,0,0,0,.35.23l0.26,0A1,1,0,0,0,938.42,690.07Z" transform="translate(-882.73 -631.03)"/></g></g></g></svg>