<svg width="22" height="24" viewBox="0 0 22 24" fill="none" xmlns="http://www.w3.org/2000/svg">
<circle opacity="0.4" cx="11" cy="12.0017" r="9.5" stroke="white" stroke-width="3"/>
<path d="M20.351 11.9985C21.2622 11.9985 22.0136 11.2557 21.8775 10.3547C21.7446 9.47572 21.5054 8.61406 21.1637 7.78902C20.6108 6.45444 19.8006 5.2418 18.7792 4.22036C17.7577 3.19892 16.5451 2.38866 15.2105 1.83586C14.3855 1.49412 13.5238 1.2549 12.6448 1.12205C11.7438 0.985875 11.001 1.73727 11.001 2.64854V2.64854C11.001 3.55981 11.748 4.28087 12.6384 4.47465C13.0851 4.57186 13.5233 4.70889 13.9476 4.88466C14.8818 5.27162 15.7307 5.8388 16.4457 6.55381C17.1607 7.26882 17.7279 8.11767 18.1148 9.05187C18.2906 9.47624 18.4277 9.91444 18.5249 10.3611C18.7186 11.2516 19.4397 11.9985 20.351 11.9985V11.9985Z" fill="white"/>
</svg>
